<svg width="1024.000000" height="1024.000000" viewBox="0 0 1024 1024" fill="none" xmlns="http://www.w3.org/2000/svg" xmlns:xlink="http://www.w3.org/1999/xlink">
	<desc>
			Created with Pixso.
	</desc>
	<defs>
		<filter id="filter_4_3_dd" x="-29.575745" y="259.634766" width="1086.851074" height="606.328125" filterUnits="userSpaceOnUse" color-interpolation-filters="sRGB">
			<feFlood flood-opacity="0" result="BackgroundImageFix"/>
			<feBlend mode="normal" in="SourceGraphic" in2="BackgroundImageFix" result="shape"/>
			<feGaussianBlur stdDeviation="20" result="effect_layerBlur_1"/>
		</filter>
		<clipPath id="clip4_1">
			<rect id="icon" width="1024.000000" height="1024.000000" fill="white"/>
		</clipPath>
	</defs>
	<g clip-path="url(#clip4_1)">
		<rect id="矩形 1" x="10.000000" y="10.000000" rx="200.000000" width="1004.000000" height="1004.000000" fill="#FFFFFF"/>
		<g filter="url(#filter_4_3_dd)">
			<path id="I2P" d="M275.596 377.496Q276.328 377.252 277.427 377.496Q278.525 377.74 279.502 378.473Q280.479 379.205 280.967 379.938Q281.455 380.67 280.967 381.158Q278.281 384.088 276.328 388.238Q274.375 392.389 273.032 397.027Q271.689 401.666 270.957 406.427Q270.225 411.188 270.225 415.338L270.225 547.418Q270.225 553.277 270.103 558.526Q269.98 563.775 269.37 568.414Q268.76 573.053 267.539 577.325Q266.318 581.598 263.999 585.504Q261.68 589.41 258.14 593.194Q254.6 596.979 249.595 601.007Q244.59 605.035 237.876 609.063Q231.162 613.092 222.129 617.73Q221.641 617.975 220.542 617.853Q219.443 617.73 218.589 617.486Q217.734 617.242 217.124 616.632Q216.514 616.021 217.002 615.533Q221.152 608.209 223.105 601.129Q225.059 594.049 225.669 587.701Q226.279 581.354 226.157 575.982Q226.035 570.611 226.035 566.705L226.279 502.496L204.551 502.496Q200.645 502.496 196.982 504.327Q193.32 506.158 190.391 509.332Q187.461 512.506 185.386 516.656Q183.311 520.807 182.09 525.201Q182.09 526.178 181.602 527.276Q181.113 528.375 180.625 529.352Q180.137 530.328 179.404 530.938Q178.672 531.549 177.695 531.305Q176.475 531.061 175.376 530.206Q174.277 529.352 173.423 528.131Q172.568 526.91 172.08 525.567Q171.592 524.225 171.592 523.248L171.592 497.125Q171.592 491.51 175.498 486.749Q179.404 481.988 185.142 478.57Q190.879 475.152 197.593 473.321Q204.307 471.49 209.922 471.49L226.279 471.734L226.035 430.963Q225.791 422.662 229.941 414.85Q234.092 407.037 240.928 399.957Q247.764 392.877 256.797 387.14Q265.83 381.402 275.596 377.496ZM278.037 319.635L286.826 325.494Q279.258 333.551 270.347 341.729Q261.436 349.908 251.304 356.5Q241.172 363.092 230.063 367.242Q218.955 371.393 206.992 371.393Q201.621 371.393 195.518 370.66Q189.414 369.928 183.188 368.707Q176.963 367.486 170.615 365.899Q164.268 364.312 158.286 362.604Q152.305 360.895 146.812 359.308Q141.318 357.721 136.68 356.5Q132.041 355.279 128.501 354.669Q124.961 354.059 122.764 354.059Q117.637 354.059 111.899 356.012Q106.162 357.965 101.768 361.627Q97.373 365.289 94.8096 370.904Q92.2461 376.52 92.9785 383.844Q93.4668 388.482 94.3213 392.633Q95.1758 396.783 97.251 400.689Q99.3262 404.596 103.11 408.014Q106.895 411.432 113.242 414.605L110.068 420.709Q107.627 419.732 102.988 417.779Q98.3496 415.826 93.9551 411.676Q89.5605 407.525 86.1426 400.689Q82.7246 393.854 82.7246 383.111Q82.7246 377.984 84.4336 372.613Q86.1426 367.242 89.0723 361.871Q92.002 356.5 96.2744 351.251Q100.547 346.002 105.674 341.363Q110.801 336.725 116.66 332.94Q122.52 329.156 128.867 326.349Q135.215 323.541 141.685 322.198Q148.154 320.855 154.502 321.1Q165.488 321.588 175.62 323.785Q185.752 325.982 196.006 328.79Q206.26 331.598 216.758 334.527Q227.256 337.457 238.975 339.166Q239.219 339.166 240.806 338.922Q242.393 338.678 244.834 338.067Q247.275 337.457 250.327 336.603Q253.379 335.748 256.675 334.527Q259.971 333.307 263.267 331.72Q266.562 330.133 269.492 328.302Q272.422 326.471 274.619 324.273Q276.816 322.076 278.037 319.635ZM352.256 602.838Q352.256 618.219 344.443 631.524Q336.631 644.83 323.203 654.84Q309.775 664.85 291.953 670.587Q274.131 676.324 254.111 676.324Q242.881 676.568 231.772 673.761Q220.664 670.953 209.8 666.437Q198.936 661.92 188.438 656.061Q177.939 650.201 168.052 643.976Q158.164 637.75 148.643 631.646Q139.121 625.543 130.088 620.782Q121.055 616.021 112.754 612.97Q104.453 609.918 96.8848 609.674Q90.293 609.43 84.3115 611.017Q78.3301 612.604 73.0811 615.533Q67.832 618.463 63.4375 622.613Q59.043 626.764 55.5029 631.646Q51.9629 636.529 49.1553 642.022Q46.3477 647.516 44.6387 653.009Q42.9297 658.502 42.0752 663.873Q41.2207 669.244 41.4648 674.371Q41.709 678.277 41.4648 682.062Q41.2207 685.846 42.1973 689.752L32.4316 689.752Q31.9434 685.357 31.0889 681.085Q30.2344 676.812 30.4785 672.418Q30.7227 661.676 33.1641 652.154Q35.6055 642.633 39.6338 634.576Q43.6621 626.52 49.2773 619.806Q54.8926 613.092 61.6064 607.843Q68.3203 602.594 75.8887 598.565Q83.457 594.537 91.3916 591.974Q99.3262 589.41 107.505 588.189Q115.684 586.969 123.496 586.969Q135.459 586.969 146.567 590.143Q157.676 593.316 167.808 598.81Q177.939 604.303 186.973 611.505Q196.006 618.707 204.307 626.52Q206.504 628.473 209.312 631.402Q212.119 634.332 215.415 637.628Q218.711 640.924 222.495 644.342Q226.279 647.76 230.308 651.056Q234.336 654.352 238.608 657.159Q242.881 659.967 247.397 662.164Q251.914 664.361 256.431 665.582Q260.947 666.803 265.586 666.559Q277.061 666.314 285.361 661.676Q293.662 657.037 299.033 650.079Q304.404 643.121 306.968 634.454Q309.531 625.787 309.531 617.73L309.531 372.613Q309.531 361.627 314.17 353.326Q318.809 345.025 326.133 338.8Q333.457 332.574 342.49 328.058Q351.523 323.541 360.312 320.367L363.486 323.541Q361.289 326.227 359.214 330.499Q357.139 334.771 355.674 339.288Q354.209 343.805 353.232 347.833Q352.256 351.861 352.256 354.303L352.256 602.838ZM395.469 455.621Q409.873 454.889 422.568 450.25Q435.264 445.611 446.006 437.799Q456.748 429.986 465.415 419.488Q474.082 408.99 480.43 396.539Q493.613 407.037 507.407 416.07Q521.201 425.104 536.338 431.695Q551.475 438.287 568.198 441.949Q584.922 445.611 603.721 445.367L603.721 451.959L592.734 453.912Q591.025 471.002 584.067 486.383Q577.109 501.764 566.001 514.825Q554.893 527.887 540 538.873Q525.107 549.859 507.529 558.16Q499.229 562.311 490.562 566.949Q481.895 571.588 473.35 576.715Q464.805 581.842 456.626 587.579Q448.447 593.316 441.001 599.176Q433.555 605.035 427.085 611.017Q420.615 616.998 415.488 623.102Q410.361 629.205 406.943 635.187Q403.525 641.168 402.061 646.783Q413.535 640.191 424.155 635.431Q434.775 630.67 445.151 627.496Q455.527 624.322 466.025 622.857Q476.523 621.393 487.754 621.148Q498.008 621.148 508.018 622.979Q518.027 624.811 527.793 627.984Q537.559 631.158 547.08 635.553Q556.602 639.947 566.123 645.074L584.922 631.646L591.025 637.018L538.047 676.568Q527.549 670.221 516.685 664.483Q505.82 658.746 494.712 654.107Q483.604 649.469 472.129 646.539Q460.654 643.609 448.936 643.121Q441.123 642.877 433.066 644.952Q425.01 647.027 417.563 650.812Q410.117 654.596 403.892 659.845Q397.666 665.094 393.516 670.953L386.191 668.756Q391.807 637.75 415.977 605.523Q440.146 573.297 481.65 541.07Q493.369 532.037 505.088 521.051Q516.807 510.064 526.694 497.979Q536.582 485.895 543.418 473.077Q550.254 460.26 551.475 447.809L517.539 433.16Q509.971 440.484 500.815 446.832Q491.66 453.18 481.406 457.818Q471.152 462.457 459.922 465.143Q448.691 467.828 436.729 467.828Q431.357 467.828 425.498 466.852Q419.639 465.875 414.146 464.166Q408.652 462.457 403.77 460.26Q398.887 458.062 395.469 455.621ZM994.102 340.631L997.275 348.199L954.551 371.637L954.551 626.52L973.838 629.693L970.664 638.238Q954.551 635.064 938.438 636.041Q922.324 637.018 907.188 642.022Q892.051 647.027 878.257 655.938Q864.463 664.85 853.232 677.545Q848.594 673.639 842.49 669.61Q836.387 665.582 830.283 662.042Q824.18 658.502 818.687 655.938Q813.193 653.375 809.531 652.154L809.531 805.963L747.764 761.041L688.926 800.592L684.775 795.221Q690.635 790.094 696.372 784.845Q702.109 779.596 706.626 773.98Q711.143 768.365 713.95 762.262Q716.758 756.158 716.758 749.322L716.758 632.867Q702.354 634.82 690.635 639.093Q678.916 643.365 669.272 650.201Q659.629 657.037 651.938 666.437Q644.248 675.836 637.9 688.287L632.529 680.719Q633.506 676.324 635.581 671.075Q637.656 665.826 640.952 659.967Q644.248 654.107 648.521 648.126Q652.793 642.145 658.164 636.407Q663.535 630.67 669.883 625.543Q676.23 620.416 683.555 616.388Q690.879 612.359 699.18 609.674Q707.48 606.988 716.758 606.012L716.758 504.449L693.32 504.449Q689.902 504.449 687.461 505.426Q685.02 506.402 683.188 508.111Q681.357 509.82 680.137 511.896Q678.916 513.971 677.817 516.412Q676.719 518.854 675.864 521.295Q675.01 523.736 673.911 526.056Q672.812 528.375 671.348 530.206Q669.883 532.037 667.686 533.258Q666.221 533.99 665.122 533.014Q664.023 532.037 663.169 530.206Q662.314 528.375 661.826 526.3Q661.338 524.225 661.338 522.516L661.338 502.252Q661.338 496.393 664.878 491.144Q668.418 485.895 674.033 481.988Q679.648 478.082 686.24 475.763Q692.832 473.443 698.691 473.443L716.758 473.443L716.758 400.445Q716.758 388.971 712.974 380.914Q709.189 372.857 702.964 367.73Q696.738 362.604 689.17 360.284Q681.602 357.965 674.033 357.721Q666.221 357.721 658.896 361.383Q651.572 365.045 645.347 371.026Q639.121 377.008 634.238 384.332Q629.355 391.656 626.182 398.492L615.439 396.295Q619.346 377.74 627.28 364.19Q635.215 350.641 645.713 341.363Q656.211 332.086 669.028 326.959Q681.846 321.832 695.518 320.367Q700.889 319.635 706.626 320.611Q712.363 321.588 718.101 323.907Q723.838 326.227 729.209 329.645Q734.58 333.062 739.463 337.335Q744.346 341.607 748.374 346.612Q752.402 351.617 755.332 356.988Q758.262 362.359 759.849 367.975Q761.436 373.59 761.436 379.205L761.436 396.295L795.615 380.182L795.615 322.32L809.531 322.32L809.531 372.613L919.395 321.344L964.316 354.547L994.102 340.631ZM760.459 405.816L760.459 760.064L796.836 784.723L796.836 389.947L760.459 405.816ZM911.826 377.008L877.891 351.373L808.555 383.355L808.555 434.869Q820.518 439.752 833.579 443.17Q846.641 446.588 859.58 446.588Q866.416 446.588 873.008 445.489Q879.6 444.391 886.069 442.804Q892.539 441.217 899.009 439.386Q905.479 437.555 911.826 435.846L911.826 377.008ZM809.531 444.391L809.531 542.779Q815.879 540.826 822.471 538.873Q829.062 536.92 835.776 535.455Q842.49 533.99 849.326 533.014Q856.162 532.037 862.998 532.281Q875.449 532.281 888.145 535.333Q900.84 538.385 911.826 544L911.826 444.391Q905.234 446.344 898.398 448.297Q891.562 450.25 884.849 451.715Q878.135 453.18 871.299 454.156Q864.463 455.133 857.627 455.133Q851.279 455.133 844.81 454.4Q838.34 453.668 832.114 452.203Q825.889 450.738 820.151 448.785Q814.414 446.832 809.531 444.391ZM808.555 553.521L808.555 605.035Q826.865 606.5 844.321 615.411Q861.777 624.322 881.064 640.436L910.85 630.67L910.85 552.545Q904.502 550.592 898.154 548.639Q891.807 546.686 885.459 545.099Q879.111 543.512 872.642 542.657Q866.172 541.803 859.58 541.803Q846.641 542.047 834.312 544.977Q821.982 547.906 808.555 553.521Z" fill-rule="evenodd" fill="#122528"/>
		</g>
		<path id="I2P" d="M275.596 377.496Q276.328 377.252 277.427 377.496Q278.525 377.74 279.502 378.473Q280.479 379.205 280.967 379.938Q281.455 380.67 280.967 381.158Q278.281 384.088 276.328 388.238Q274.375 392.389 273.032 397.027Q271.689 401.666 270.957 406.427Q270.225 411.188 270.225 415.338L270.225 547.418Q270.225 553.277 270.103 558.526Q269.98 563.775 269.37 568.414Q268.76 573.053 267.539 577.325Q266.318 581.598 263.999 585.504Q261.68 589.41 258.14 593.194Q254.6 596.979 249.595 601.007Q244.59 605.035 237.876 609.063Q231.162 613.092 222.129 617.73Q221.641 617.975 220.542 617.853Q219.443 617.73 218.589 617.486Q217.734 617.242 217.124 616.632Q216.514 616.021 217.002 615.533Q221.152 608.209 223.105 601.129Q225.059 594.049 225.669 587.701Q226.279 581.354 226.157 575.982Q226.035 570.611 226.035 566.705L226.279 502.496L204.551 502.496Q200.645 502.496 196.982 504.327Q193.32 506.158 190.391 509.332Q187.461 512.506 185.386 516.656Q183.311 520.807 182.09 525.201Q182.09 526.178 181.602 527.276Q181.113 528.375 180.625 529.352Q180.137 530.328 179.404 530.938Q178.672 531.549 177.695 531.305Q176.475 531.061 175.376 530.206Q174.277 529.352 173.423 528.131Q172.568 526.91 172.08 525.567Q171.592 524.225 171.592 523.248L171.592 497.125Q171.592 491.51 175.498 486.749Q179.404 481.988 185.142 478.57Q190.879 475.152 197.593 473.321Q204.307 471.49 209.922 471.49L226.279 471.734L226.035 430.963Q225.791 422.662 229.941 414.85Q234.092 407.037 240.928 399.957Q247.764 392.877 256.797 387.14Q265.83 381.402 275.596 377.496ZM278.037 319.635L286.826 325.494Q279.258 333.551 270.347 341.729Q261.436 349.908 251.304 356.5Q241.172 363.092 230.063 367.242Q218.955 371.393 206.992 371.393Q201.621 371.393 195.518 370.66Q189.414 369.928 183.188 368.707Q176.963 367.486 170.615 365.899Q164.268 364.312 158.286 362.604Q152.305 360.895 146.812 359.308Q141.318 357.721 136.68 356.5Q132.041 355.279 128.501 354.669Q124.961 354.059 122.764 354.059Q117.637 354.059 111.899 356.012Q106.162 357.965 101.768 361.627Q97.373 365.289 94.8096 370.904Q92.2461 376.52 92.9785 383.844Q93.4668 388.482 94.3213 392.633Q95.1758 396.783 97.251 400.689Q99.3262 404.596 103.11 408.014Q106.895 411.432 113.242 414.605L110.068 420.709Q107.627 419.732 102.988 417.779Q98.3496 415.826 93.9551 411.676Q89.5605 407.525 86.1426 400.689Q82.7246 393.854 82.7246 383.111Q82.7246 377.984 84.4336 372.613Q86.1426 367.242 89.0723 361.871Q92.002 356.5 96.2744 351.251Q100.547 346.002 105.674 341.363Q110.801 336.725 116.66 332.94Q122.52 329.156 128.867 326.349Q135.215 323.541 141.685 322.198Q148.154 320.855 154.502 321.1Q165.488 321.588 175.62 323.785Q185.752 325.982 196.006 328.79Q206.26 331.598 216.758 334.527Q227.256 337.457 238.975 339.166Q239.219 339.166 240.806 338.922Q242.393 338.678 244.834 338.067Q247.275 337.457 250.327 336.603Q253.379 335.748 256.675 334.527Q259.971 333.307 263.267 331.72Q266.562 330.133 269.492 328.302Q272.422 326.471 274.619 324.273Q276.816 322.076 278.037 319.635ZM352.256 602.838Q352.256 618.219 344.443 631.524Q336.631 644.83 323.203 654.84Q309.775 664.85 291.953 670.587Q274.131 676.324 254.111 676.324Q242.881 676.568 231.772 673.761Q220.664 670.953 209.8 666.437Q198.936 661.92 188.438 656.061Q177.939 650.201 168.052 643.976Q158.164 637.75 148.643 631.646Q139.121 625.543 130.088 620.782Q121.055 616.021 112.754 612.97Q104.453 609.918 96.8848 609.674Q90.293 609.43 84.3115 611.017Q78.3301 612.604 73.0811 615.533Q67.832 618.463 63.4375 622.613Q59.043 626.764 55.5029 631.646Q51.9629 636.529 49.1553 642.022Q46.3477 647.516 44.6387 653.009Q42.9297 658.502 42.0752 663.873Q41.2207 669.244 41.4648 674.371Q41.709 678.277 41.4648 682.062Q41.2207 685.846 42.1973 689.752L32.4316 689.752Q31.9434 685.357 31.0889 681.085Q30.2344 676.812 30.4785 672.418Q30.7227 661.676 33.1641 652.154Q35.6055 642.633 39.6338 634.576Q43.6621 626.52 49.2773 619.806Q54.8926 613.092 61.6064 607.843Q68.3203 602.594 75.8887 598.565Q83.457 594.537 91.3916 591.974Q99.3262 589.41 107.505 588.189Q115.684 586.969 123.496 586.969Q135.459 586.969 146.567 590.143Q157.676 593.316 167.808 598.81Q177.939 604.303 186.973 611.505Q196.006 618.707 204.307 626.52Q206.504 628.473 209.312 631.402Q212.119 634.332 215.415 637.628Q218.711 640.924 222.495 644.342Q226.279 647.76 230.308 651.056Q234.336 654.352 238.608 657.159Q242.881 659.967 247.397 662.164Q251.914 664.361 256.431 665.582Q260.947 666.803 265.586 666.559Q277.061 666.314 285.361 661.676Q293.662 657.037 299.033 650.079Q304.404 643.121 306.968 634.454Q309.531 625.787 309.531 617.73L309.531 372.613Q309.531 361.627 314.17 353.326Q318.809 345.025 326.133 338.8Q333.457 332.574 342.49 328.058Q351.523 323.541 360.312 320.367L363.486 323.541Q361.289 326.227 359.214 330.499Q357.139 334.771 355.674 339.288Q354.209 343.805 353.232 347.833Q352.256 351.861 352.256 354.303L352.256 602.838ZM395.469 455.621Q409.873 454.889 422.568 450.25Q435.264 445.611 446.006 437.799Q456.748 429.986 465.415 419.488Q474.082 408.99 480.43 396.539Q493.613 407.037 507.407 416.07Q521.201 425.104 536.338 431.695Q551.475 438.287 568.198 441.949Q584.922 445.611 603.721 445.367L603.721 451.959L592.734 453.912Q591.025 471.002 584.067 486.383Q577.109 501.764 566.001 514.825Q554.893 527.887 540 538.873Q525.107 549.859 507.529 558.16Q499.229 562.311 490.562 566.949Q481.895 571.588 473.35 576.715Q464.805 581.842 456.626 587.579Q448.447 593.316 441.001 599.176Q433.555 605.035 427.085 611.017Q420.615 616.998 415.488 623.102Q410.361 629.205 406.943 635.187Q403.525 641.168 402.061 646.783Q413.535 640.191 424.155 635.431Q434.775 630.67 445.151 627.496Q455.527 624.322 466.025 622.857Q476.523 621.393 487.754 621.148Q498.008 621.148 508.018 622.979Q518.027 624.811 527.793 627.984Q537.559 631.158 547.08 635.553Q556.602 639.947 566.123 645.074L584.922 631.646L591.025 637.018L538.047 676.568Q527.549 670.221 516.685 664.483Q505.82 658.746 494.712 654.107Q483.604 649.469 472.129 646.539Q460.654 643.609 448.936 643.121Q441.123 642.877 433.066 644.952Q425.01 647.027 417.563 650.812Q410.117 654.596 403.892 659.845Q397.666 665.094 393.516 670.953L386.191 668.756Q391.807 637.75 415.977 605.523Q440.146 573.297 481.65 541.07Q493.369 532.037 505.088 521.051Q516.807 510.064 526.694 497.979Q536.582 485.895 543.418 473.077Q550.254 460.26 551.475 447.809L517.539 433.16Q509.971 440.484 500.815 446.832Q491.66 453.18 481.406 457.818Q471.152 462.457 459.922 465.143Q448.691 467.828 436.729 467.828Q431.357 467.828 425.498 466.852Q419.639 465.875 414.146 464.166Q408.652 462.457 403.77 460.26Q398.887 458.062 395.469 455.621ZM994.102 340.631L997.275 348.199L954.551 371.637L954.551 626.52L973.838 629.693L970.664 638.238Q954.551 635.064 938.438 636.041Q922.324 637.018 907.188 642.022Q892.051 647.027 878.257 655.938Q864.463 664.85 853.232 677.545Q848.594 673.639 842.49 669.61Q836.387 665.582 830.283 662.042Q824.18 658.502 818.687 655.938Q813.193 653.375 809.531 652.154L809.531 805.963L747.764 761.041L688.926 800.592L684.775 795.221Q690.635 790.094 696.372 784.845Q702.109 779.596 706.626 773.98Q711.143 768.365 713.95 762.262Q716.758 756.158 716.758 749.322L716.758 632.867Q702.354 634.82 690.635 639.093Q678.916 643.365 669.272 650.201Q659.629 657.037 651.938 666.437Q644.248 675.836 637.9 688.287L632.529 680.719Q633.506 676.324 635.581 671.075Q637.656 665.826 640.952 659.967Q644.248 654.107 648.521 648.126Q652.793 642.145 658.164 636.407Q663.535 630.67 669.883 625.543Q676.23 620.416 683.555 616.388Q690.879 612.359 699.18 609.674Q707.48 606.988 716.758 606.012L716.758 504.449L693.32 504.449Q689.902 504.449 687.461 505.426Q685.02 506.402 683.188 508.111Q681.357 509.82 680.137 511.896Q678.916 513.971 677.817 516.412Q676.719 518.854 675.864 521.295Q675.01 523.736 673.911 526.056Q672.812 528.375 671.348 530.206Q669.883 532.037 667.686 533.258Q666.221 533.99 665.122 533.014Q664.023 532.037 663.169 530.206Q662.314 528.375 661.826 526.3Q661.338 524.225 661.338 522.516L661.338 502.252Q661.338 496.393 664.878 491.144Q668.418 485.895 674.033 481.988Q679.648 478.082 686.24 475.763Q692.832 473.443 698.691 473.443L716.758 473.443L716.758 400.445Q716.758 388.971 712.974 380.914Q709.189 372.857 702.964 367.73Q696.738 362.604 689.17 360.284Q681.602 357.965 674.033 357.721Q666.221 357.721 658.896 361.383Q651.572 365.045 645.347 371.026Q639.121 377.008 634.238 384.332Q629.355 391.656 626.182 398.492L615.439 396.295Q619.346 377.74 627.28 364.19Q635.215 350.641 645.713 341.363Q656.211 332.086 669.028 326.959Q681.846 321.832 695.518 320.367Q700.889 319.635 706.626 320.611Q712.363 321.588 718.101 323.907Q723.838 326.227 729.209 329.645Q734.58 333.062 739.463 337.335Q744.346 341.607 748.374 346.612Q752.402 351.617 755.332 356.988Q758.262 362.359 759.849 367.975Q761.436 373.59 761.436 379.205L761.436 396.295L795.615 380.182L795.615 322.32L809.531 322.32L809.531 372.613L919.395 321.344L964.316 354.547L994.102 340.631ZM760.459 405.816L760.459 760.064L796.836 784.723L796.836 389.947L760.459 405.816ZM911.826 377.008L877.891 351.373L808.555 383.355L808.555 434.869Q820.518 439.752 833.579 443.17Q846.641 446.588 859.58 446.588Q866.416 446.588 873.008 445.489Q879.6 444.391 886.069 442.804Q892.539 441.217 899.009 439.386Q905.479 437.555 911.826 435.846L911.826 377.008ZM809.531 444.391L809.531 542.779Q815.879 540.826 822.471 538.873Q829.062 536.92 835.776 535.455Q842.49 533.99 849.326 533.014Q856.162 532.037 862.998 532.281Q875.449 532.281 888.145 535.333Q900.84 538.385 911.826 544L911.826 444.391Q905.234 446.344 898.398 448.297Q891.562 450.25 884.849 451.715Q878.135 453.18 871.299 454.156Q864.463 455.133 857.627 455.133Q851.279 455.133 844.81 454.4Q838.34 453.668 832.114 452.203Q825.889 450.738 820.151 448.785Q814.414 446.832 809.531 444.391ZM808.555 553.521L808.555 605.035Q826.865 606.5 844.321 615.411Q861.777 624.322 881.064 640.436L910.85 630.67L910.85 552.545Q904.502 550.592 898.154 548.639Q891.807 546.686 885.459 545.099Q879.111 543.512 872.642 542.657Q866.172 541.803 859.58 541.803Q846.641 542.047 834.312 544.977Q821.982 547.906 808.555 553.521Z" fill-rule="evenodd" fill="#122528"/>
	</g>
</svg>
