<svg width="512.000000" height="512.000000" viewBox="0 0 512 512" fill="none" xmlns="http://www.w3.org/2000/svg" xmlns:xlink="http://www.w3.org/1999/xlink">
	<desc>
			Created with Pixso.
	</desc>
	<defs>
		<clipPath id="clip111_18">
			<rect id="画板 1" width="512.000000" height="512.000000" fill="white"/>
		</clipPath>
	</defs>
	<rect width="512.000000" height="512.000000" fill="#EFEFEF"/>
	<g clip-path="url(#clip111_18)">
		<path id="path" d="M388.459 194L459 261.694L459 392C459 392.721 458.965 393.439 458.896 394.156C458.827 394.873 458.724 395.585 458.586 396.292C458.448 396.999 458.277 397.697 458.072 398.386C457.867 399.076 457.629 399.753 457.359 400.419C457.089 401.085 456.787 401.735 456.455 402.371C456.122 403.006 455.759 403.623 455.367 404.223C454.975 404.822 454.555 405.4 454.107 405.957C453.659 406.514 453.186 407.047 452.687 407.556C452.187 408.066 451.665 408.549 451.119 409.006C450.573 409.463 450.007 409.892 449.42 410.292C448.833 410.693 448.228 411.063 447.606 411.402C446.983 411.742 446.346 412.05 445.693 412.325C445.041 412.601 444.377 412.844 443.702 413.053C443.026 413.262 442.342 413.437 441.65 413.577C440.957 413.718 440.26 413.823 439.557 413.894C438.855 413.965 438.15 414 437.444 414L286.556 414C285.85 414 285.145 413.965 284.443 413.894C283.74 413.823 283.043 413.718 282.35 413.577C281.658 413.437 280.974 413.262 280.298 413.053C279.623 412.843 278.959 412.601 278.307 412.325C277.654 412.05 277.017 411.742 276.394 411.402C275.772 411.063 275.167 410.693 274.58 410.292C273.993 409.892 273.427 409.463 272.881 409.006C272.335 408.549 271.813 408.066 271.313 407.556C270.814 407.047 270.341 406.514 269.893 405.957C269.445 405.4 269.025 404.822 268.633 404.222C268.241 403.623 267.878 403.006 267.545 402.371C267.212 401.735 266.911 401.085 266.641 400.419C266.371 399.753 266.133 399.076 265.928 398.386C265.723 397.697 265.552 396.999 265.414 396.292C265.276 395.585 265.173 394.873 265.104 394.156C265.035 393.439 265 392.721 265 392L265 216C265 215.279 265.035 214.561 265.104 213.844C265.173 213.127 265.276 212.415 265.414 211.708C265.552 211.001 265.723 210.303 265.928 209.614C266.133 208.924 266.371 208.247 266.641 207.581C266.911 206.915 267.212 206.265 267.545 205.629C267.878 204.994 268.241 204.377 268.633 203.777C269.025 203.178 269.445 202.6 269.893 202.043C270.341 201.486 270.814 200.953 271.313 200.444C271.813 199.934 272.335 199.451 272.881 198.994C273.427 198.537 273.993 198.108 274.58 197.708C275.167 197.307 275.772 196.937 276.394 196.598C277.017 196.258 277.654 195.95 278.307 195.675C278.959 195.399 279.623 195.156 280.298 194.947C280.974 194.738 281.658 194.563 282.35 194.423C283.043 194.282 283.74 194.177 284.443 194.106C285.145 194.035 285.85 194 286.556 194L388.459 194ZM450.184 270.153L379.632 202.47L379.632 248.164C379.632 248.885 379.667 249.603 379.736 250.32C379.805 251.037 379.909 251.749 380.047 252.456C380.184 253.163 380.356 253.861 380.561 254.55C380.766 255.24 381.003 255.917 381.273 256.583C381.543 257.249 381.845 257.899 382.178 258.535C382.51 259.17 382.873 259.787 383.265 260.387C383.657 260.986 384.077 261.564 384.525 262.121C384.973 262.678 385.447 263.211 385.946 263.72C386.445 264.23 386.968 264.713 387.513 265.17C388.059 265.627 388.625 266.056 389.212 266.456C389.799 266.857 390.404 267.227 391.027 267.566C391.649 267.906 392.287 268.214 392.939 268.489C393.591 268.765 394.255 269.008 394.931 269.217C395.606 269.426 396.29 269.601 396.983 269.741C397.675 269.882 398.373 269.987 399.075 270.058C399.778 270.129 400.482 270.164 401.188 270.164L450.184 270.153ZM291.459 304L291.459 361.959L298.551 361.959L298.551 335.515L302.183 335.515C309.167 335.515 314.039 335.229 316.787 334.679C319.536 334.129 321.853 333.172 323.76 331.819C325.657 330.488 327.112 328.783 328.125 326.726C329.149 324.669 329.656 322.337 329.656 319.752C329.656 317.167 329.139 314.846 328.093 312.789C327.05 310.721 325.606 309.005 323.76 307.641C321.928 306.269 319.906 305.319 317.693 304.792C315.494 304.264 310.87 304 303.832 304L291.459 304ZM298.551 328.937L298.551 310.655L308.456 310.655C317.693 310.655 322.316 313.658 322.316 319.675C322.338 320.972 322.084 322.211 321.555 323.39C321.026 324.57 320.274 325.576 319.298 326.407C317.294 328.2 313.511 329.047 307.96 328.937L298.551 328.937ZM340.304 304L340.304 361.959L359.769 361.959C367.852 361.959 373.996 360.727 378.21 358.274C382.413 355.821 385.668 352.411 387.953 348.055C390.227 343.71 391.369 339.068 391.369 334.162C391.369 329.256 390.604 324.922 389.063 321.182C387.569 317.482 385.356 314.303 382.424 311.645C379.415 308.949 375.991 307.021 372.153 305.859C368.186 304.616 361.86 304 353.173 304L340.304 304ZM347.148 355.458L347.148 310.655L350.78 310.655C357.549 310.655 362.744 310.985 366.376 311.645C370.008 312.305 373.166 313.625 375.86 315.605C378.555 317.585 380.635 320.137 382.09 323.283C383.545 326.418 384.278 329.839 384.278 333.535C384.278 337.231 383.663 340.487 382.424 343.314C381.187 346.144 379.384 348.527 377.013 350.464C374.642 352.422 371.872 353.742 368.682 354.424C365.492 355.117 360.405 355.458 353.421 355.458L347.148 355.458ZM432.541 334.085L432.541 327.353L408.786 327.353L408.786 310.732L432.541 310.732L432.541 304L401.684 304L401.684 361.959L408.786 361.959L408.786 334.085L432.541 334.085Z" fill-rule="nonzero" fill="#000000"/>
		<path id="path" d="M222.75 97L77.2498 97C63.9121 97 53 108.644 53 122.875L53 278.125C53 292.357 63.9121 304 77.2498 304L222.75 304C236.087 304 247 292.357 247 278.125L247 122.875C247 108.643 236.087 97 222.75 97ZM101.5 122.875C114.837 122.875 125.749 134.519 125.749 148.75C125.749 162.982 114.837 174.625 101.5 174.625C88.1624 174.625 77.2498 162.982 77.2498 148.75C77.2498 134.519 88.1624 122.875 101.5 122.875ZM68.5474 285.282L68.5474 264.124L86.9498 233.073C95.4372 221.43 104.365 221.43 112.853 231.78L155.29 287.41L68.5474 287.41L68.5474 285.282ZM230.24 287.411L174.644 287.411L150.394 253.773L187.374 199.436C195.861 187.792 207.202 187.792 215.69 199.436L231.452 221.429L231.452 287.411L230.24 287.411Z" fill-rule="nonzero" fill="#000000"/>
	</g>
</svg>
